<?xml version="1.0" encoding="utf-8"?>
<!-- Generator: Adobe Illustrator 28.2.0, SVG Export Plug-In . SVG Version: 6.00 Build 0)  -->
<svg version="1.1" id="Layer_1" xmlns="http://www.w3.org/2000/svg" xmlns:xlink="http://www.w3.org/1999/xlink" x="0px" y="0px"
	 viewBox="0 0 800 800" style="enable-background:new 0 0 800 800;" xml:space="preserve">
<style type="text/css">
	.st0{fill:#08717C;}
	.st1{fill:url(#SVGID_1_);}
	.st2{fill:#F0FFFF;}
	.st3{fill:url(#SVGID_00000173868495883113697280000006260172646564030130_);}
</style>
<g>
	<path d="M897.34-277.94l-9.58,9.58H850.9h-0.36v-13.54h3.6v-33.05h-3.6v-13.46h36.86h0.36l9.58,9.58v15.41l-3.96,3.96l3.96,3.96
		V-277.94z M896.76-318.55l-9.29-9.29h-36.36v12.31h3.6v34.27h-3.6v12.31h36.36l9.29-9.36v-16.92l-4.25-4.25l4.25-4.25V-318.55z
		 M894.02-294.07v14.47l-7.99,7.92h-32.18v-6.91h3.6v-36.86v-2.81h-3.6v-6.91h32.18l7.99,7.92v12.31l-5.4,5.47L894.02-294.07z
		 M880.34-302.85l3.74-3.82v-7.85l-3.74-3.74h-13.03v15.41H880.34z M880.34-278.59l3.74-3.67v-10.01l-3.74-3.67h-13.03v17.35H880.34
		z M879.19-315.52l2.16,2.16v5.54l-2.16,2.16h-9.14v-9.86H879.19z M879.19-293.28l2.16,2.16v7.7l-2.16,2.16h-9.14v-12.02H879.19z
		 M878.83-314.95h-8.21v8.71h8.21l1.94-1.94V-313L878.83-314.95z M878.83-292.7h-8.21v10.8h8.21l1.94-1.87v-6.98L878.83-292.7z"/>
</g>
<g>
	<g>
		<path class="st0" d="M-318.66,444.35h-48.15l-31.8,63.32h48.15l17.08-11.38l20.37-40.57L-318.66,444.35z M-335.45,494.4
			l-15.19,9.85h-43.22l28.56-56.87h43.22l5.09,10.24L-335.45,494.4z M-259.82,327.21h-48.15l-26.08,51.94h48.15l17.08-11.38
			l14.66-29.2L-259.82,327.21z M-270.9,365.88l-15.38,10.24h-43.22l23.04-45.88h43.22l5.09,10.24L-270.9,365.88z M-318.66,444.35
			h-48.15l-31.8,63.32h48.15l17.08-11.38l20.37-40.57L-318.66,444.35z M-335.45,494.4l-15.19,9.85h-43.22l28.56-56.87h43.22
			l5.09,10.24L-335.45,494.4z M-259.82,327.21h-48.15l-26.08,51.94h48.15l17.08-11.38l14.66-29.2L-259.82,327.21z M-270.9,365.88
			l-15.38,10.24h-43.22l23.04-45.88h43.22l5.09,10.24L-270.9,365.88z M-177.15,318.11l-21.14-41.7h-169.47l-18.28,36.39h18.96
			l-7.42,14.79l-97.48,194.11h-18.96l-18.28,36.4h169.47l63.03-41.7l38.27-76.2l-14.16-28.43l42.91-28.82L-177.15,318.11z
			 M-322.01,502.36l-29.42,19.34h-68.62l45.88-91.37h68.63l10,19.34L-322.01,502.36z M-257.47,373.84l-29.8,20.1h-68.62l40.75-81.14
			h68.62l9.81,19.71L-257.47,373.84z M-307.97,327.21l-26.08,51.94h48.15l17.08-11.38l14.66-29.2l-5.66-11.37H-307.97z
			 M-270.9,365.88l-15.38,10.24h-43.22l23.04-45.88h43.22l5.09,10.24L-270.9,365.88z M-366.8,444.35l-31.8,63.32h48.15l17.08-11.38
			l20.37-40.57l-5.66-11.38H-366.8z M-335.45,494.4l-15.19,9.85h-43.22l28.56-56.87h43.22l5.09,10.24L-335.45,494.4z
			 M-177.15,318.11l-21.14-41.7h-169.47l-18.28,36.39h18.96l-7.42,14.79l-97.48,194.11h-18.96l-18.28,36.4h169.47l63.03-41.7
			l38.27-76.2l-14.16-28.43l42.91-28.82L-177.15,318.11z M-322.01,502.36l-29.42,19.34h-68.62l45.88-91.37h68.63l10,19.34
			L-322.01,502.36z M-257.47,373.84l-29.8,20.1h-68.62l40.75-81.14h68.62l9.81,19.71L-257.47,373.84z M-307.97,327.21l-26.08,51.94
			h48.15l17.08-11.38l14.66-29.2l-5.66-11.37H-307.97z M-270.9,365.88l-15.38,10.24h-43.22l23.04-45.88h43.22l5.09,10.24
			L-270.9,365.88z M-366.8,444.35l-31.8,63.32h48.15l17.08-11.38l20.37-40.57l-5.66-11.38H-366.8z M-335.45,494.4l-15.19,9.85
			h-43.22l28.56-56.87h43.22l5.09,10.24L-335.45,494.4z M-155.53,309.76l-25.1-50.43h-196.01l-35.6,70.9h18.95l-87.38,174.01h-18.96
			l-35.8,71.28h196.01l75.74-50.43l46.46-92.51l-10.38-20.84l31.33-20.85L-155.53,309.76z M-232.15,411.75l11.13,22.37l-44.74,89.09
			l-73.67,49.29h-191.46l32.56-64.83h18.95l90.63-180.46h-18.95l32.56-64.83h191.46l24.35,48.91l-39.22,78.1L-232.15,411.75z
			 M-198.3,276.4h-169.47l-18.28,36.39h18.96l-7.42,14.79l-97.48,194.11h-18.96l-18.28,36.4h169.47l63.03-41.7l38.27-76.2
			l-14.16-28.43l42.91-28.82l32.56-64.83L-198.3,276.4z M-322.01,502.36l-29.42,19.34h-68.62l45.88-91.37h68.63l10,19.34
			L-322.01,502.36z M-257.47,373.84l-29.8,20.1h-68.62l40.75-81.14h68.62l9.81,19.71L-257.47,373.84z M-307.97,327.21l-26.08,51.94
			h48.15l17.08-11.38l14.66-29.2l-5.66-11.37H-307.97z M-270.9,365.88l-15.38,10.24h-43.22l23.04-45.88h43.22l5.09,10.24
			L-270.9,365.88z M-366.8,444.35l-31.8,63.32h48.15l17.08-11.38l20.37-40.57l-5.66-11.38H-366.8z M-335.45,494.4l-15.19,9.85
			h-43.22l28.56-56.87h43.22l5.09,10.24L-335.45,494.4z"/>
		<path class="st0" d="M-166.97,262.37c7.08,12.71,18.17,33.09,25.24,46.03c0,0,0.24,0.44,0.24,0.44s-0.23,0.47-0.23,0.47
			c-9.02,18.69-21.45,44.14-30.6,62.76c0,0-10.3,20.87-10.3,20.87l-0.18,0.37l-0.35,0.27c-10.95,8.44-21.96,16.8-32.93,25.2
			l0.54-2.44l8.65,16.54l0.46,0.88l-0.44,0.89c-14.74,29.93-30.95,62.59-46.02,92.49c0,0-0.18,0.37-0.18,0.37s-0.32,0.21-0.32,0.21
			c-24.54,15.6-51.41,32.59-76.13,47.82c23.94-16.41,50.34-34.14,74.55-50.24c0,0-0.51,0.57-0.51,0.57
			c14.48-30.24,30.4-62.95,45.1-92.94c0,0,0.02,1.77,0.02,1.77c-0.22-0.41-9.5-18.23-9.39-18.01c11.46-8.67,22.88-17.39,34.37-26.02
			c0,0-0.53,0.64-0.53,0.64s10.53-20.76,10.53-20.76c9.39-18.46,22.33-43.73,31.86-62.13c0,0,0.01,0.91,0.01,0.91
			C-150.1,296.18-160.53,275.47-166.97,262.37L-166.97,262.37z"/>
		<path class="st0" d="M-154.44,262.37c7.08,12.71,18.17,33.09,25.24,46.03c0,0,0.24,0.44,0.24,0.44s-0.23,0.47-0.23,0.47
			c-9.02,18.69-21.45,44.14-30.6,62.76c0,0-10.3,20.87-10.3,20.87l-0.18,0.37l-0.35,0.27c-10.95,8.44-21.96,16.8-32.93,25.2
			l0.54-2.44l8.65,16.54l0.46,0.88l-0.44,0.89c-14.74,29.93-30.95,62.59-46.02,92.49c0,0-0.18,0.37-0.18,0.37s-0.32,0.21-0.32,0.21
			c-24.54,15.6-51.41,32.59-76.13,47.82c23.94-16.41,50.34-34.14,74.55-50.24c0,0-0.51,0.57-0.51,0.57
			c14.48-30.24,30.4-62.95,45.1-92.94c0,0,0.02,1.77,0.02,1.77c-0.22-0.41-9.5-18.23-9.39-18.01c11.46-8.67,22.88-17.39,34.37-26.02
			c0,0-0.53,0.64-0.53,0.64s10.53-20.76,10.53-20.76c9.39-18.46,22.33-43.73,31.86-62.13c0,0,0.01,0.91,0.01,0.91
			C-137.57,296.18-148,275.47-154.44,262.37L-154.44,262.37z"/>
		<path class="st0" d="M-141.98,262.37c7.08,12.71,18.17,33.09,25.24,46.03c0,0,0.24,0.44,0.24,0.44s-0.23,0.47-0.23,0.47
			c-9.02,18.69-21.45,44.14-30.6,62.76c0,0-10.29,20.87-10.29,20.87l-0.18,0.37c0,0-0.35,0.27-0.35,0.27
			c-10.95,8.44-21.96,16.8-32.93,25.2l0.54-2.44l8.65,16.54c0,0,0.46,0.88,0.46,0.88l-0.44,0.89
			c-14.74,29.93-30.95,62.59-46.02,92.49c0,0-0.18,0.37-0.18,0.37s-0.32,0.21-0.32,0.21c-24.54,15.6-51.41,32.59-76.13,47.82
			c23.94-16.41,50.34-34.14,74.55-50.24c0,0-0.51,0.57-0.51,0.57c14.48-30.24,30.4-62.95,45.1-92.94c0,0,0.02,1.77,0.02,1.77
			c-0.22-0.41-9.5-18.23-9.39-18.01c11.46-8.67,22.88-17.39,34.37-26.02c0,0-0.53,0.64-0.53,0.64s10.53-20.76,10.53-20.76
			c9.39-18.46,22.33-43.73,31.86-62.13c0,0,0.01,0.91,0.01,0.91C-125.12,296.18-135.55,275.47-141.98,262.37L-141.98,262.37z"/>
		<g>
			<g>
				<path class="st0" d="M-556.12,579.14l-1.92-2.36c-0.23-0.28-23.39-28.67-50.59-55.15c-35.53-34.58-61.65-50.28-75.53-45.4
					c-8.23,2.89-12.47,13.47-12.6,31.46l-3.93,0.09c-0.05-0.92-1.11-22.73,5.92-31.62c6.37-8.06,120.48-208.56,125.56-217.49
					c0.56-2.89,4.77-20.82,25.09-30.99c13.39-6.7,30.83-8.47,51.82-5.24c26.16,4.02,58,15.85,94.62,35.18l1.7,0.9L-556.12,579.14z
					 M-678.8,471.44c16.1,0,40.57,15.89,72.92,47.39c22.82,22.21,42.8,45.76,48.94,53.13l155.71-311.77
					c-80.38-42.07-121.11-39.03-141.14-29c-19.89,9.95-23,28.28-23.03,28.46l-0.06,0.35l-0.18,0.31
					c-4.53,7.96-103.8,182.45-123.12,213.76c1.03-0.63,2.13-1.16,3.29-1.56C-683.43,471.8-681.21,471.44-678.8,471.44z"/>
			</g>
		</g>
		<path class="st0" d="M-569.55,575.53c-19.73-20.86-39.4-41.74-60.85-60.81c-10.63-9.31-21.7-18.66-34.34-25
			c-9.68-4.7-19.96-6.25-24.23,5.82c-1.35,3.78-1.93,7.8-2.31,11.78c-0.1-5.38,0.22-11.1,2.64-16.05
			c8.93-17.09,33.4-0.73,43.98,6.84c11.69,8.57,22.36,18.36,32.61,28.55C-596.86,542.01-582.53,558.26-569.55,575.53L-569.55,575.53
			z"/>
		<path class="st0" d="M-579.54,575.53c-15.42-15.29-36.58-36.86-52.36-51.28c-7.85-6.94-37.97-35.96-47.81-29.29
			c-3.52,2.79-3.57,8.1-3.67,12.28c-0.53-4.46-1-10.07,2.73-13.47c11.59-8.95,42.56,19.73,51.41,27.6
			C-611.31,538.11-594.6,556.17-579.54,575.53L-579.54,575.53z"/>
		<linearGradient id="SVGID_1_" gradientUnits="userSpaceOnUse" x1="-500.2123" y1="399.6063" x2="-609.45" y2="343.3489">
			<stop  offset="0" style="stop-color:#FFFFFF;stop-opacity:0"/>
			<stop  offset="0.7816" style="stop-color:#08717C"/>
		</linearGradient>
		<path class="st1" d="M-671.05,462.95l112.03-200.58c0,0,32.17-46.4,123.12,0l-133.66,271.88
			C-569.55,534.25-648.86,448.53-671.05,462.95z"/>
	</g>
	<rect x="-700.78" y="105.55" class="st0" width="47.6" height="207.25"/>
	<rect x="-634.68" y="105.55" class="st0" width="50.89" height="146.41"/>
	<rect x="-566.47" y="105.55" class="st0" width="49.94" height="103.16"/>
	<rect x="-498.71" y="105.55" class="st0" width="49.91" height="103.62"/>
	<rect x="-427.61" y="105.55" class="st0" width="43.18" height="126.45"/>
	<rect x="-361.14" y="105.55" class="st0" width="45.74" height="124.79"/>
	<rect x="-291.28" y="105.55" class="st0" width="41.49" height="124.79"/>
	<rect x="-223.54" y="105.55" class="st0" width="41.49" height="124.79"/>
	<rect x="-155.8" y="105.55" class="st0" width="41.49" height="124.79"/>
	<rect x="-700.78" y="529.65" class="st0" width="47.6" height="164.8"/>
	<rect x="-634.68" y="581.08" class="st0" width="50.89" height="113.37"/>
	<rect x="-566.47" y="591.29" class="st0" width="49.94" height="103.16"/>
	<rect x="-498.71" y="591.29" class="st0" width="49.91" height="103.16"/>
	<rect x="-427.61" y="591.29" class="st0" width="43.18" height="103.16"/>
	<rect x="-361.14" y="591.29" class="st0" width="45.74" height="103.16"/>
	<rect x="-291.28" y="585.28" class="st0" width="41.49" height="109.16"/>
	<rect x="-223.54" y="557.55" class="st0" width="41.49" height="136.89"/>
	<rect x="-155.8" y="467.71" class="st0" width="41.49" height="226.74"/>
</g>
<g>
	<polygon class="st0" points="-846.72,-905.93 -872.65,-854.3 -894.39,-839.82 -955.67,-839.82 -915.2,-920.41 -853.92,-920.41 	"/>
	<polygon class="st0" points="-875.29,-856.71 -894.62,-844.17 -949.63,-844.17 -913.28,-916.55 -858.27,-916.55 -851.79,-903.52 	
		"/>
</g>
<g>
	<polygon class="st0" points="-825.58,-1074.4 -844.24,-1037.24 -865.98,-1022.76 -927.26,-1022.76 -894.06,-1088.87 
		-832.78,-1088.87 	"/>
	<polygon class="st0" points="-846.89,-1039.65 -866.47,-1026.62 -921.48,-1026.62 -892.15,-1085.01 -837.14,-1085.01 
		-830.66,-1071.98 	"/>
</g>
<g>
	<polygon class="st0" points="-919.78,-468.01 -945.71,-416.38 -967.45,-401.9 -1028.73,-401.9 -988.26,-482.49 -926.98,-482.49 	
		"/>
	<polygon class="st0" points="-948.35,-418.8 -967.68,-406.26 -1022.69,-406.26 -986.34,-478.64 -931.33,-478.64 -924.85,-465.61 	
		"/>
</g>
<g>
	<polygon class="st0" points="-888.05,-724.46 -906.71,-687.3 -928.45,-672.82 -989.73,-672.82 -956.53,-738.93 -895.25,-738.93 	
		"/>
	<polygon class="st0" points="-909.36,-689.71 -928.94,-676.68 -983.95,-676.68 -954.62,-735.07 -899.61,-735.07 -893.13,-722.04 	
		"/>
</g>
<g>
	<polygon class="st0" points="-443.91,-850.97 -436.71,-836.5 -455.37,-799.34 -477.11,-784.86 -538.39,-784.86 -505.19,-850.97 	
		"/>
	<path class="st0" d="M-518.79-701.87h-61.28l-40.47,80.59h61.28l21.74-14.48l25.93-51.63L-518.79-701.87z M-518.79-701.87h-61.28
		l-40.47,80.59h61.28l21.74-14.48l25.93-51.63L-518.79-701.87z M-338.69-862.55l-26.91-53.08h-215.7l-23.26,46.32h24.13l-9.45,18.82
		l-124.07,247.06h-24.13l-23.27,46.33h215.7l80.22-53.08l48.71-96.99l-18.02-36.19l54.61-36.68L-338.69-862.55z M-523.06-628.04
		l-37.45,24.61h-87.34l58.4-116.29h87.35l12.73,24.61L-523.06-628.04z M-440.91-791.62l-37.93,25.58h-87.34l51.86-103.27h87.34
		l12.49,25.09L-440.91-791.62z M-580.07-701.87l-40.47,80.59h61.28l21.74-14.48l25.93-51.63l-7.2-14.48H-580.07z"/>
	<polygon class="st0" points="-511.59,-687.39 -537.52,-635.76 -559.26,-621.28 -620.54,-621.28 -580.07,-701.87 -518.79,-701.87 	
		"/>
	<polygon class="st0" points="-436.71,-836.5 -455.37,-799.34 -477.11,-784.86 -538.39,-784.86 -505.19,-850.97 -443.91,-850.97 	
		"/>
</g>
<g>
	<polygon class="st0" points="-569.7,-1060.63 -588.36,-1023.47 -610.1,-1008.99 -671.38,-1008.99 -638.18,-1075.1 -576.9,-1075.1 	
		"/>
	<polygon class="st0" points="-591,-1025.88 -610.58,-1012.85 -665.59,-1012.85 -636.26,-1071.24 -581.25,-1071.24 
		-574.77,-1058.21 	"/>
</g>
<g>
	<polygon class="st0" points="-1187.54,-391.28 -1213.47,-339.65 -1235.21,-325.17 -1296.49,-325.17 -1256.02,-405.76 
		-1194.74,-405.76 	"/>
	<polygon class="st0" points="-1216.11,-342.06 -1235.44,-329.52 -1290.45,-329.52 -1254.1,-401.9 -1199.09,-401.9 
		-1192.61,-388.87 	"/>
</g>
<g>
	<polygon class="st0" points="-930.61,-1445.43 -923.41,-1430.96 -942.07,-1393.8 -963.81,-1379.32 -1025.09,-1379.32 
		-991.89,-1445.43 	"/>
	<path class="st0" d="M-1005.49-1296.33h-61.28l-40.47,80.59h61.28l21.74-14.48l25.93-51.63L-1005.49-1296.33z M-1005.49-1296.33
		h-61.28l-40.47,80.59h61.28l21.74-14.48l25.93-51.63L-1005.49-1296.33z M-825.39-1457.01l-26.91-53.08H-1068l-23.26,46.32h24.13
		l-9.45,18.82l-124.07,247.06h-24.13l-23.27,46.33h215.7l80.22-53.08l48.71-96.99l-18.02-36.19l54.61-36.68L-825.39-1457.01z
		 M-1009.76-1222.5l-37.45,24.61h-87.34l58.4-116.29h87.35l12.73,24.61L-1009.76-1222.5z M-927.61-1386.08l-37.93,25.58h-87.34
		l51.86-103.27h87.34l12.49,25.09L-927.61-1386.08z M-1066.77-1296.33l-40.47,80.59h61.28l21.74-14.48l25.93-51.63l-7.2-14.48
		H-1066.77z"/>
	<polygon class="st0" points="-998.29,-1281.85 -1024.22,-1230.22 -1045.96,-1215.74 -1107.24,-1215.74 -1066.77,-1296.33 
		-1005.49,-1296.33 	"/>
	<polygon class="st0" points="-923.41,-1430.96 -942.07,-1393.8 -963.81,-1379.32 -1025.09,-1379.32 -991.89,-1445.43 
		-930.61,-1445.43 	"/>
</g>
<g>
	<polygon class="st0" points="-1025.09,-1074.4 -1043.75,-1037.24 -1065.49,-1022.76 -1126.77,-1022.76 -1093.57,-1088.87 
		-1032.29,-1088.87 	"/>
	<polygon class="st0" points="-1046.4,-1039.65 -1065.98,-1026.62 -1120.99,-1026.62 -1091.66,-1085.01 -1036.65,-1085.01 
		-1030.17,-1071.98 	"/>
</g>
<g>
	<polygon class="st0" points="-706.88,-941.45 -732.81,-889.82 -754.55,-875.34 -815.83,-875.34 -775.36,-955.93 -714.08,-955.93 	
		"/>
	<polygon class="st0" points="-735.45,-892.23 -754.78,-879.69 -809.79,-879.69 -773.44,-952.07 -718.43,-952.07 -711.95,-939.04 	
		"/>
</g>
<g>
	<polygon class="st0" points="-205.04,-1624.7 -197.84,-1610.23 -216.5,-1573.07 -238.24,-1558.59 -299.52,-1558.59 
		-266.32,-1624.7 	"/>
	<path class="st0" d="M-279.92-1475.6h-61.28l-40.47,80.59h61.28l21.74-14.48l25.93-51.63L-279.92-1475.6z M-279.92-1475.6h-61.28
		l-40.47,80.59h61.28l21.74-14.48l25.93-51.63L-279.92-1475.6z M-72.29-1646.9l-31.95-64.18h-249.48l-45.31,90.24h24.12
		l-111.22,221.48h-24.13l-45.56,90.72h249.48l96.4-64.18l59.13-117.74l-13.21-26.53l39.87-26.54L-72.29-1646.9z M-169.81-1517.09
		l14.17,28.47l-56.94,113.39l-93.76,62.73h-243.68l41.44-82.51h24.12l115.35-229.69h-24.12l41.44-82.52h243.68l30.99,62.25
		l-49.92,99.4L-169.81-1517.09z M-126.73-1689.36h-215.7l-23.26,46.32h24.13l-9.45,18.82l-124.07,247.06h-24.13l-23.27,46.33h215.7
		l80.22-53.08l48.71-96.99l-18.02-36.19l54.61-36.68l41.44-82.51L-126.73-1689.36z M-284.19-1401.77l-37.45,24.61h-87.34
		l58.4-116.29h87.35l12.73,24.61L-284.19-1401.77z M-202.04-1565.35l-37.93,25.58h-87.34l51.86-103.27h87.34l12.49,25.09
		L-202.04-1565.35z M-341.2-1475.6l-40.47,80.59h61.28l21.74-14.48l25.93-51.63l-7.2-14.48H-341.2z"/>
	<polygon class="st0" points="-205.04,-1624.7 -197.84,-1610.23 -216.5,-1573.07 -238.24,-1558.59 -299.52,-1558.59 
		-266.32,-1624.7 	"/>
	<path class="st0" d="M-279.92-1475.6h-61.28l-40.47,80.59h61.28l21.74-14.48l25.93-51.63L-279.92-1475.6z M-279.92-1475.6h-61.28
		l-40.47,80.59h61.28l21.74-14.48l25.93-51.63L-279.92-1475.6z M-99.82-1636.28l-26.91-53.08h-215.7l-23.26,46.32h24.13l-9.45,18.82
		l-124.07,247.06h-24.13l-23.27,46.33h215.7l80.22-53.08l48.71-96.99l-18.02-36.19l54.61-36.68L-99.82-1636.28z M-284.19-1401.77
		l-37.45,24.61h-87.34l58.4-116.29h87.35l12.73,24.61L-284.19-1401.77z M-202.04-1565.35l-37.93,25.58h-87.34l51.86-103.27h87.34
		l12.49,25.09L-202.04-1565.35z M-341.2-1475.6l-40.47,80.59h61.28l21.74-14.48l25.93-51.63l-7.2-14.48H-341.2z"/>
</g>
<g>
	<polygon class="st0" points="-621.45,-1898.1 -614.25,-1883.63 -632.91,-1846.47 -654.65,-1831.99 -715.93,-1831.99 
		-682.73,-1898.1 	"/>
	<path class="st0" d="M-696.33-1749h-61.28l-40.47,80.59h61.28l21.74-14.48l25.93-51.63L-696.33-1749z M-696.33-1749h-61.28
		l-40.47,80.59h61.28l21.74-14.48l25.93-51.63L-696.33-1749z M-516.23-1909.68l-26.91-53.08h-215.7l-23.26,46.32h24.13l-9.45,18.82
		l-124.07,247.06h-24.13l-23.27,46.33h215.7l80.22-53.08l48.71-96.99l-18.02-36.19l54.61-36.68L-516.23-1909.68z M-700.6-1675.17
		l-37.45,24.61h-87.34l58.4-116.29h87.35l12.73,24.61L-700.6-1675.17z M-618.45-1838.75l-37.93,25.58h-87.34l51.86-103.27h87.34
		l12.49,25.09L-618.45-1838.75z M-757.61-1749l-40.47,80.59h61.28l21.74-14.48l25.93-51.63l-7.2-14.48H-757.61z"/>
	<polygon class="st0" points="-689.13,-1734.52 -715.06,-1682.89 -736.8,-1668.41 -798.08,-1668.41 -757.61,-1749 -696.33,-1749 	
		"/>
	<polygon class="st0" points="-614.25,-1883.63 -632.91,-1846.47 -654.65,-1831.99 -715.93,-1831.99 -682.73,-1898.1 
		-621.45,-1898.1 	"/>
</g>
<g>
	<polygon class="st0" points="-695.31,-1256.54 -713.97,-1219.38 -735.71,-1204.9 -796.99,-1204.9 -763.79,-1271.01 
		-702.51,-1271.01 	"/>
	<polygon class="st0" points="-716.62,-1221.79 -736.2,-1208.76 -791.21,-1208.76 -761.88,-1267.15 -706.87,-1267.15 
		-700.39,-1254.12 	"/>
</g>
<g>
	<polygon class="st0" points="-1139.1,-818.81 -1165.03,-767.18 -1186.77,-752.7 -1248.05,-752.7 -1207.58,-833.29 -1146.3,-833.29 
			"/>
	<polygon class="st0" points="-1167.68,-769.59 -1187.01,-757.05 -1242.02,-757.05 -1205.67,-829.43 -1150.66,-829.43 
		-1144.18,-816.4 	"/>
</g>
<rect x="25.18" y="25.18" class="st2" width="749.65" height="749.65"/>
<g>
	<g>
		<path class="st0" d="M507.42,453.6h-58.18l-38.42,76.52h58.18l20.64-13.75l24.62-49.02L507.42,453.6z M487.13,514.08l-18.35,11.91
			h-52.23l34.51-68.72h52.23l6.15,12.37L487.13,514.08z M578.51,312.03h-58.18l-31.52,62.77h58.18l20.64-13.75l17.72-35.28
			L578.51,312.03z M565.12,358.77l-18.59,12.37H494.3l27.85-55.44h52.23l6.15,12.37L565.12,358.77z M507.42,453.6h-58.18
			l-38.42,76.52h58.18l20.64-13.75l24.62-49.02L507.42,453.6z M487.13,514.08l-18.35,11.91h-52.23l34.51-68.72h52.23l6.15,12.37
			L487.13,514.08z M578.51,312.03h-58.18l-31.52,62.77h58.18l20.64-13.75l17.72-35.28L578.51,312.03z M565.12,358.77l-18.59,12.37
			H494.3l27.85-55.44h52.23l6.15,12.37L565.12,358.77z M678.41,301.04l-25.55-50.4h-204.8l-22.08,43.98h22.91l-8.97,17.87
			l-117.8,234.57h-22.91l-22.09,43.99h204.8l76.17-50.4l46.25-92.09l-17.11-34.36l51.85-34.83L678.41,301.04z M503.36,523.7
			l-35.56,23.37h-82.93l55.45-110.41h82.94l12.09,23.37L503.36,523.7z M581.36,368.38l-36.01,24.29h-82.93l49.24-98.05h82.93
			l11.86,23.82L581.36,368.38z M520.33,312.03l-31.52,62.77h58.18l20.64-13.75l17.72-35.28l-6.84-13.74H520.33z M565.12,358.77
			l-18.59,12.37H494.3l27.85-55.44h52.23l6.15,12.37L565.12,358.77z M449.23,453.6l-38.42,76.52h58.18l20.64-13.75l24.62-49.02
			l-6.84-13.75H449.23z M487.13,514.08l-18.35,11.91h-52.23l34.51-68.72h52.23l6.15,12.37L487.13,514.08z M678.41,301.04
			l-25.55-50.4h-204.8l-22.08,43.98h22.91l-8.97,17.87l-117.8,234.57h-22.91l-22.09,43.99h204.8l76.17-50.4l46.25-92.09
			l-17.11-34.36l51.85-34.83L678.41,301.04z M503.36,523.7l-35.56,23.37h-82.93l55.45-110.41h82.94l12.09,23.37L503.36,523.7z
			 M581.36,368.38l-36.01,24.29h-82.93l49.24-98.05h82.93l11.86,23.82L581.36,368.38z M520.33,312.03l-31.52,62.77h58.18
			l20.64-13.75l17.72-35.28l-6.84-13.74H520.33z M565.12,358.77l-18.59,12.37H494.3l27.85-55.44h52.23l6.15,12.37L565.12,358.77z
			 M449.23,453.6l-38.42,76.52h58.18l20.64-13.75l24.62-49.02l-6.84-13.75H449.23z M487.13,514.08l-18.35,11.91h-52.23l34.51-68.72
			h52.23l6.15,12.37L487.13,514.08z M704.55,290.95l-30.34-60.94H437.34l-43.02,85.68h22.9l-105.6,210.29h-22.91l-43.26,86.13
			h236.87l91.53-60.94L630,439.39l-12.54-25.19l37.85-25.2L704.55,290.95z M611.96,414.2l13.45,27.03l-54.06,107.66l-89.02,59.56
			H250.97l39.35-78.34h22.9l109.52-218.08h-22.9l39.35-78.35h231.36l29.42,59.1l-47.4,94.38L611.96,414.2z M652.86,250.64h-204.8
			l-22.08,43.98h22.91l-8.97,17.87l-117.8,234.57h-22.91l-22.09,43.99h204.8l76.17-50.4l46.25-92.09l-17.11-34.36l51.85-34.83
			l39.35-78.34L652.86,250.64z M503.36,523.7l-35.56,23.37h-82.93l55.45-110.41h82.94l12.09,23.37L503.36,523.7z M581.36,368.38
			l-36.01,24.29h-82.93l49.24-98.05h82.93l11.86,23.82L581.36,368.38z M520.33,312.03l-31.52,62.77h58.18l20.64-13.75l17.72-35.28
			l-6.84-13.74H520.33z M565.12,358.77l-18.59,12.37H494.3l27.85-55.44h52.23l6.15,12.37L565.12,358.77z M449.23,453.6l-38.42,76.52
			h58.18l20.64-13.75l24.62-49.02l-6.84-13.75H449.23z M487.13,514.08l-18.35,11.91h-52.23l34.51-68.72h52.23l6.15,12.37
			L487.13,514.08z"/>
		<path class="st0" d="M690.72,233.69c8.56,15.37,21.95,39.99,30.5,55.63c0,0,0.29,0.53,0.29,0.53s-0.28,0.57-0.28,0.57
			c-10.9,22.59-25.92,53.35-36.98,75.85c0,0-12.44,25.22-12.44,25.22l-0.22,0.45l-0.42,0.32c-13.23,10.2-26.53,20.3-39.8,30.46
			l0.66-2.95l10.46,19.99l0.56,1.06l-0.53,1.07c-17.81,36.16-37.4,75.64-55.61,111.76c0,0-0.22,0.44-0.22,0.44s-0.39,0.25-0.39,0.25
			c-29.66,18.85-62.12,39.38-91.99,57.79c28.93-19.83,60.83-41.25,90.09-60.71c0,0-0.61,0.69-0.61,0.69
			c17.49-36.54,36.74-76.08,54.5-112.31c0,0,0.03,2.13,0.03,2.13c-0.27-0.49-11.48-22.03-11.35-21.76
			c13.85-10.47,27.65-21.01,41.53-31.44c0,0-0.64,0.77-0.64,0.77s12.72-25.09,12.72-25.09c11.35-22.31,26.99-52.85,38.5-75.08
			c0,0,0.01,1.1,0.01,1.1C711.11,274.54,698.51,249.51,690.72,233.69L690.72,233.69z"/>
		<path class="st0" d="M705.86,233.69c8.56,15.37,21.95,39.99,30.5,55.63c0,0,0.29,0.53,0.29,0.53s-0.28,0.57-0.28,0.57
			c-10.9,22.59-25.92,53.35-36.98,75.85c0,0-12.44,25.22-12.44,25.22l-0.22,0.45l-0.42,0.32c-13.23,10.2-26.53,20.3-39.8,30.46
			l0.66-2.95l10.46,19.99l0.56,1.06l-0.53,1.07c-17.81,36.16-37.4,75.64-55.61,111.76c0,0-0.22,0.44-0.22,0.44s-0.39,0.25-0.39,0.25
			c-29.66,18.85-62.12,39.38-91.99,57.79c28.93-19.83,60.83-41.25,90.09-60.71c0,0-0.61,0.69-0.61,0.69
			c17.49-36.54,36.74-76.08,54.5-112.31c0,0,0.03,2.13,0.03,2.13c-0.27-0.49-11.48-22.03-11.35-21.76
			c13.85-10.47,27.65-21.01,41.53-31.44c0,0-0.64,0.77-0.64,0.77s12.72-25.09,12.72-25.09c11.35-22.31,26.99-52.85,38.5-75.08
			c0,0,0.01,1.1,0.01,1.1C726.24,274.54,713.64,249.51,705.86,233.69L705.86,233.69z"/>
		<path class="st0" d="M720.91,233.69c8.56,15.37,21.95,39.99,30.5,55.63c0,0,0.29,0.53,0.29,0.53s-0.28,0.57-0.28,0.57
			c-10.9,22.59-25.92,53.35-36.98,75.85c0,0-12.44,25.22-12.44,25.22l-0.22,0.45c0,0-0.42,0.32-0.42,0.32
			c-13.23,10.2-26.53,20.3-39.8,30.46l0.66-2.95l10.46,19.99c0,0,0.56,1.06,0.56,1.06l-0.53,1.07
			c-17.81,36.16-37.4,75.64-55.61,111.76c0,0-0.22,0.44-0.22,0.44s-0.39,0.25-0.39,0.25c-29.66,18.85-62.12,39.38-91.99,57.79
			c28.93-19.83,60.83-41.25,90.09-60.71c0,0-0.61,0.69-0.61,0.69c17.49-36.54,36.74-76.08,54.5-112.31c0,0,0.03,2.13,0.03,2.13
			c-0.27-0.49-11.48-22.03-11.35-21.76c13.85-10.47,27.65-21.01,41.53-31.44c0,0-0.64,0.77-0.64,0.77s12.72-25.09,12.72-25.09
			c11.35-22.31,26.99-52.85,38.5-75.08c0,0,0.01,1.1,0.01,1.1C741.3,274.54,728.69,249.51,720.91,233.69L720.91,233.69z"/>
		<g>
			<g>
				<path class="st0" d="M220.45,616.47l-2.32-2.85c-0.28-0.34-28.26-34.65-61.13-66.65c-42.93-41.79-74.49-60.76-91.27-54.86
					c-9.94,3.49-15.07,16.28-15.23,38.02l-4.74,0.11c-0.06-1.12-1.35-27.46,7.16-38.21c7.7-9.74,145.59-252.03,151.73-262.83
					c0.67-3.49,5.77-25.16,30.32-37.45c16.18-8.1,37.25-10.23,62.62-6.34c31.62,4.86,70.09,19.16,114.34,42.51l2.05,1.08
					L220.45,616.47z M72.21,486.34c19.45,0,49.02,19.2,88.13,57.26c27.58,26.84,51.73,55.3,59.14,64.2l188.17-376.76
					C310.51,180.2,261.29,183.88,237.08,196c-24.03,12.03-27.8,34.17-27.83,34.4l-0.07,0.43l-0.21,0.38
					c-5.47,9.62-125.44,220.48-148.79,258.32c1.24-0.77,2.57-1.4,3.97-1.89C66.6,486.77,69.29,486.34,72.21,486.34z"/>
			</g>
		</g>
		<path class="st0" d="M204.22,612.12c-23.84-25.21-47.62-50.44-73.54-73.49c-12.85-11.26-26.22-22.55-41.5-30.21
			c-11.7-5.69-24.12-7.56-29.29,7.03c-1.63,4.57-2.34,9.42-2.79,14.24c-0.12-6.5,0.27-13.42,3.19-19.39
			c10.8-20.65,40.37-0.88,53.14,8.26c14.13,10.35,27.03,22.18,39.41,34.5C171.23,571.61,188.54,591.24,204.22,612.12L204.22,612.12z
			"/>
		<path class="st0" d="M192.16,612.12c-18.64-18.48-44.2-44.55-63.28-61.97c-9.48-8.39-45.88-43.46-57.78-35.4
			c-4.26,3.37-4.32,9.78-4.43,14.84c-0.64-5.39-1.21-12.17,3.3-16.28c14.01-10.81,51.43,23.84,62.13,33.36
			C153.76,566.9,173.96,588.72,192.16,612.12L192.16,612.12z"/>
		
			<linearGradient id="SVGID_00000177485670062258311100000010923640322287289249_" gradientUnits="userSpaceOnUse" x1="288.0156" y1="399.5242" x2="156.0079" y2="331.5403">
			<stop  offset="0" style="stop-color:#FFFFFF;stop-opacity:0"/>
			<stop  offset="0.7816" style="stop-color:#08717C"/>
		</linearGradient>
		<path style="fill:url(#SVGID_00000177485670062258311100000010923640322287289249_);" d="M81.57,476.08l135.38-242.39
			c0,0,38.87-56.07,148.79,0L204.22,562.24C204.22,562.24,108.38,458.65,81.57,476.08z"/>
	</g>
	<rect x="45.64" y="44.18" class="st0" width="57.52" height="250.44"/>
	<rect x="125.52" y="44.18" class="st0" width="61.5" height="176.93"/>
	<rect x="207.95" y="44.18" class="st0" width="60.35" height="124.66"/>
	<rect x="289.83" y="44.18" class="st0" width="60.32" height="125.22"/>
	<rect x="375.75" y="44.18" class="st0" width="52.18" height="152.81"/>
	<rect x="456.07" y="44.18" class="st0" width="55.27" height="150.8"/>
	<rect x="540.5" y="44.18" class="st0" width="50.14" height="150.8"/>
	<rect x="622.36" y="44.18" class="st0" width="50.14" height="150.8"/>
	<rect x="704.22" y="44.18" class="st0" width="50.14" height="150.8"/>
	<rect x="45.64" y="556.67" class="st0" width="57.52" height="199.15"/>
	<rect x="125.52" y="618.82" class="st0" width="61.5" height="137"/>
	<rect x="207.95" y="631.17" class="st0" width="60.35" height="124.66"/>
	<rect x="289.83" y="631.17" class="st0" width="60.32" height="124.66"/>
	<rect x="375.75" y="631.17" class="st0" width="52.18" height="124.66"/>
	<rect x="456.07" y="631.17" class="st0" width="55.27" height="124.66"/>
	<rect x="540.5" y="623.9" class="st0" width="50.14" height="131.92"/>
	<rect x="622.36" y="590.39" class="st0" width="50.14" height="165.43"/>
	<rect x="704.22" y="481.82" class="st0" width="50.14" height="274"/>
</g>
</svg>
